<svg width="14" height="13" viewBox="0 0 12 11" fill="none" xmlns="http://www.w3.org/2000/svg">
<path d="M6.11719 10.6094L6.58594 10.1641C6.70312 10.0469 6.70312 9.85938 6.58594 9.76562L2.95312 6.10938H10.9688C11.1094 6.10938 11.25 5.99219 11.25 5.82812V5.17188C11.25 5.03125 11.1094 4.89062 10.9688 4.89062H2.95312L6.58594 1.25781C6.70312 1.16406 6.70312 0.976562 6.58594 0.859375L6.11719 0.414062C6.02344 0.296875 5.83594 0.296875 5.71875 0.414062L0.820312 5.3125C0.703125 5.42969 0.703125 5.59375 0.820312 5.71094L5.71875 10.6094C5.83594 10.7266 6.02344 10.7266 6.11719 10.6094Z" fill="#0D172A" fill-opacity="0.4"/>
</svg>
