<svg width="12" height="13" viewBox="0 0 12 13" fill="none" xmlns="http://www.w3.org/2000/svg">
<path d="M11.7188 5.9375H11.0156C10.7578 3.59375 8.90625 1.74219 6.5625 1.48438V0.78125C6.5625 0.640625 6.42188 0.5 6.28125 0.5H5.71875C5.55469 0.5 5.4375 0.640625 5.4375 0.78125V1.48438C3.07031 1.74219 1.21875 3.59375 0.960938 5.9375H0.28125C0.117188 5.9375 0 6.07812 0 6.21875V6.78125C0 6.94531 0.117188 7.0625 0.28125 7.0625H0.960938C1.21875 9.42969 3.07031 11.2812 5.4375 11.5391V12.2188C5.4375 12.3828 5.55469 12.5 5.71875 12.5H6.28125C6.42188 12.5 6.5625 12.3828 6.5625 12.2188V11.5391C8.90625 11.2812 10.7578 9.42969 11.0156 7.0625H11.7188C11.8594 7.0625 12 6.94531 12 6.78125V6.21875C12 6.07812 11.8594 5.9375 11.7188 5.9375ZM6.5625 10.4141V9.40625C6.5625 9.26562 6.42188 9.125 6.28125 9.125H5.71875C5.55469 9.125 5.4375 9.26562 5.4375 9.40625V10.4141C3.70312 10.1562 2.34375 8.79688 2.08594 7.0625H3.09375C3.23438 7.0625 3.375 6.94531 3.375 6.78125V6.21875C3.375 6.07812 3.23438 5.9375 3.09375 5.9375H2.08594C2.34375 4.22656 3.70312 2.86719 5.4375 2.60938V3.59375C5.4375 3.75781 5.55469 3.875 5.71875 3.875H6.28125C6.42188 3.875 6.5625 3.75781 6.5625 3.59375V2.60938C8.27344 2.86719 9.63281 4.22656 9.89062 5.9375H8.90625C8.74219 5.9375 8.625 6.07812 8.625 6.21875V6.78125C8.625 6.94531 8.74219 7.0625 8.90625 7.0625H9.89062C9.63281 8.79688 8.27344 10.1562 6.5625 10.4141ZM6.75 6.5C6.75 6.10156 6.39844 5.75 6 5.75C5.57812 5.75 5.25 6.10156 5.25 6.5C5.25 6.92188 5.57812 7.25 6 7.25C6.39844 7.25 6.75 6.92188 6.75 6.5Z" fill="#017AFF"/>
</svg>
