<svg width="12" height="11" viewBox="0 0 12 11" fill="none" xmlns="http://www.w3.org/2000/svg">
<path d="M5.85938 0.414062L5.39062 0.859375C5.27344 0.976562 5.27344 1.16406 5.39062 1.25781L9.02344 4.89062H1.03125C0.867188 4.89062 0.75 5.03125 0.75 5.17188V5.82812C0.75 5.99219 0.867188 6.10938 1.03125 6.10938H9.02344L5.39062 9.76562C5.27344 9.85938 5.27344 10.0469 5.39062 10.1641L5.85938 10.6094C5.95312 10.7266 6.14062 10.7266 6.25781 10.6094L11.1562 5.71094C11.2734 5.59375 11.2734 5.42969 11.1562 5.3125L6.25781 0.414062C6.14062 0.296875 5.95312 0.296875 5.85938 0.414062Z" fill="#017AFF"/>
</svg>
