<svg width="8" height="9" viewBox="0 0 8 9" fill="none" xmlns="http://www.w3.org/2000/svg">
<path d="M4.77344 4.5L7.1875 2.10938L7.67969 1.61719C7.75 1.54688 7.75 1.42969 7.67969 1.33594L7.16406 0.820312C7.07031 0.75 6.95312 0.75 6.88281 0.820312L4 3.72656L1.09375 0.820312C1.02344 0.75 0.90625 0.75 0.8125 0.820312L0.296875 1.33594C0.226562 1.42969 0.226562 1.54688 0.296875 1.61719L3.20312 4.5L0.296875 7.40625C0.226562 7.47656 0.226562 7.59375 0.296875 7.6875L0.8125 8.20312C0.90625 8.27344 1.02344 8.27344 1.09375 8.20312L4 5.29688L6.39062 7.71094L6.88281 8.20312C6.95312 8.27344 7.07031 8.27344 7.16406 8.20312L7.67969 7.6875C7.75 7.59375 7.75 7.47656 7.67969 7.40625L4.77344 4.5Z" fill="#0D172A" fill-opacity="0.4"/>
</svg>
